# xmcd CD database file
#
# Track frame offsets:
#	150
#	11075
#	23787
#	34625
#	51162
#	62750
#	80300
#	91775
#	107600
#	123012
#	134825
#	156425
#	171985
#	186162
#	201500
#	204947
#	220400
#	236637
#	255235
#	279312
#
# Disc length: 3990 seconds
#
# Revision: 3
# Processed by: cddbd v1.5.2PL0 Copyright (c) Steve Scherf et al.
# Submitted via: CDex 1.70beta2
#
DISCID=160f9414
DTITLE=Rory Block - Best Blues and Originals
DYEAR=1988
DGENRE=Blues
TTITLE0=rory block - walkin' blues
TTITLE1=rory block - travelin' blues
TTITLE2=rory block - got to have you be my man
TTITLE3=rory block - the water is wide
TTITLE4=rory block - crossroad blues
TTITLE5=rory block - ain't no way to do
TTITLE6=rory block - catastrophe rag
TTITLE7=rory block - lovin' fool
TTITLE8=rory block - sit down on the banks
TTITLE9=rory block - god's gift to women
TTITLE10=rory block - the golden vanity
TTITLE11=rory block - el vuelo del alma
TTITLE12=rory block - future blues
TTITLE13=rory block - m and o blues
TTITLE14=rory block - foreign lander
TTITLE15=rory block - moon's goin' down
TTITLE16=rory block - send the man back home
TTITLE17=rory block - lovin' whiskey
TTITLE18=rory block - gypsie boy
TTITLE19=rory block - goin' back to the county
EXTD=YEAR: 1988
EXTT0=
EXTT1=
EXTT2=
EXTT3=
EXTT4=
EXTT5=
EXTT6=
EXTT7=
EXTT8=
EXTT9=
EXTT10=
EXTT11=
EXTT12=
EXTT13=
EXTT14=
EXTT15=
EXTT16=
EXTT17=
EXTT18=
EXTT19=
PLAYORDER=
